<svg width="1024" height="1157" viewBox="0 0 1024 1157" fill="none" xmlns="http://www.w3.org/2000/svg">
<path fill-rule="evenodd" clip-rule="evenodd" d="M806.17 999.795L984.076 897.082C984.193 896.999 984.316 896.917 984.433 896.835L1011.93 869.341C1020.44 855.444 1023.48 839.763 1024 820.58V578.43V515.257V328.931C1023.28 319.339 1021.72 310.995 1019.3 303.591C1012.39 282.357 998.522 268.884 977.714 256.104L768.008 135.03L602.319 39.3711L368.391 285.545V506.625H655.627V327.101H799.245V740.067L421.753 1117.52L472.092 1146.59C505.619 1162.73 529.348 1158.6 558.309 1142.91L768.022 1021.84L806.17 999.795Z" fill="#CABEAE"/>
<path fill-rule="evenodd" clip-rule="evenodd" d="M224.755 416.922L368.373 273.304L602.302 39.3688L551.922 10.2778C518.388 -5.86872 494.666 -1.73441 465.705 13.9527L255.999 135.027L217.824 157.07L39.9241 259.784C9.18746 280.743 0.898171 303.362 0 336.286V578.428V641.677V827.927C0.719908 837.519 2.29006 845.863 4.69661 853.268C11.6146 874.502 25.4847 887.974 46.2935 900.754L255.999 1021.83L421.736 1117.51L655.61 863.97V650.241H368.373V829.765H224.755V416.922Z" fill="#CABEAE"/>
</svg>
